<?xml version="1.0" standalone="no"?>
<!DOCTYPE svg PUBLIC "-//W3C//DTD SVG 20010904//EN"
 "http://www.w3.org/TR/2001/REC-SVG-20010904/DTD/svg10.dtd">
<svg version="1.0" xmlns="http://www.w3.org/2000/svg"
 width="240.000000pt" height="240.000000pt" viewBox="0 0 240.000000 240.000000"
 preserveAspectRatio="xMidYMid meet">

<g transform="translate(0.000000,240.000000) scale(0.100000,-0.100000)"
fill="#000000" stroke="none">
<path d="M1305 2069 c-111 -26 -239 -125 -292 -226 -68 -127 -78 -235 -44
-468 28 -190 60 -309 89 -330 8 -7 12 -24 10 -40 -2 -25 -8 -31 -38 -36 -19
-3 -46 -11 -59 -18 -30 -17 -69 -9 -116 24 -21 14 -46 25 -57 25 -22 0 -60 18
-70 34 -9 13 -1 146 14 244 18 118 -23 343 -85 467 -16 32 -18 51 -14 103 6
58 4 66 -18 88 -13 13 -30 24 -37 24 -23 0 -76 -38 -83 -60 -8 -24 14 -62 49
-85 14 -10 33 -41 47 -78 12 -34 26 -66 30 -72 4 -5 17 -47 29 -93 20 -75 22
-97 16 -245 -11 -287 -17 -317 -56 -317 -16 0 -17 10 -12 114 3 85 1 127 -11
167 -8 30 -21 74 -27 99 -6 25 -20 63 -30 85 -68 149 -80 181 -80 219 0 46 -6
58 -35 73 -44 23 -95 -28 -81 -82 4 -17 18 -31 41 -41 39 -16 65 -59 109 -182
66 -184 86 -364 51 -462 -8 -23 -15 -53 -15 -66 0 -13 -19 -61 -43 -106 l-42
-83 0 -120 c0 -107 3 -125 24 -165 24 -48 98 -130 116 -130 5 0 23 -7 40 -16
17 -8 57 -16 95 -16 91 -2 131 19 178 94 36 58 38 59 77 54 22 -2 114 -29 205
-59 232 -78 261 -85 386 -97 114 -10 241 -1 297 21 17 7 47 9 80 4 99 -13 131
-12 135 7 2 9 -10 45 -26 80 -28 61 -54 137 -66 188 -9 40 -82 148 -148 216
-33 34 -102 90 -154 125 -52 34 -94 68 -94 75 0 8 24 40 53 72 95 104 155 205
203 347 21 62 24 88 24 230 0 147 -2 165 -25 226 -27 71 -73 127 -126 153 -39
20 -115 20 -149 1 -30 -17 -96 -20 -106 -4 -8 14 -84 49 -104 48 -8 -1 -33 -5
-55 -10z m115 -79 c12 -23 -5 -53 -61 -105 -70 -65 -136 -194 -174 -338 -21
-82 -25 -119 -25 -240 1 -81 6 -166 14 -197 16 -68 12 -80 -25 -80 -27 0 -33
6 -55 57 -14 31 -28 70 -31 87 -3 17 -12 51 -20 76 -11 33 -15 101 -16 260 -2
204 -1 218 22 278 52 138 166 218 313 221 38 1 49 -3 58 -19z m298 -17 c33
-21 47 -41 69 -93 27 -62 28 -71 26 -215 -2 -131 -5 -160 -28 -230 -34 -104
-72 -170 -160 -280 -86 -108 -92 -113 -130 -117 -30 -3 -30 -3 -28 45 1 40 -1
46 -13 36 -8 -6 -14 -18 -14 -26 0 -22 -47 -64 -65 -57 -13 5 -15 17 -9 67 6
56 6 59 -12 49 -10 -5 -23 -30 -29 -54 -8 -36 -14 -43 -37 -46 -46 -5 -51 25
-44 263 3 116 11 228 16 250 27 101 57 164 109 229 31 37 63 78 71 89 8 11 48
42 89 69 88 58 126 62 189 21z m-1120 -62 c23 -14 10 -46 -18 -46 -16 0 -26 6
-28 19 -3 16 12 36 28 36 3 0 11 -4 18 -9z m848 -946 c68 -18 96 -35 147 -88
71 -74 80 -104 75 -246 -5 -153 -29 -222 -93 -261 -38 -23 -38 -23 -101 -7
-34 9 -71 17 -81 17 -10 0 -44 8 -75 17 -64 20 -72 37 -39 79 52 66 47 251 -9
350 -36 62 -53 77 -107 93 -63 17 -57 38 14 47 20 2 39 7 42 9 10 11 174 4
227 -10z m-646 -24 c38 -17 45 -26 73 -92 27 -66 30 -85 31 -184 1 -101 -1
-115 -27 -172 -16 -33 -42 -74 -58 -89 -27 -26 -36 -28 -95 -27 -114 3 -172
46 -217 161 -11 27 -17 71 -17 120 0 64 5 87 29 137 34 70 85 123 144 147 55
22 86 22 137 -1z m317 -313 c-2 -13 -4 -5 -4 17 -1 22 1 32 4 23 2 -10 2 -28
0 -40z m902 -237 c12 -8 12 -12 2 -25 -15 -18 -47 -21 -56 -6 -8 13 12 40 29
40 6 0 17 -4 25 -9z"/>
<path d="M700 912 c-38 -6 -86 -47 -117 -100 -24 -40 -28 -58 -28 -124 0 -88
15 -118 81 -155 49 -28 86 -29 134 -2 55 31 70 71 70 185 0 80 -4 103 -21 134
-28 49 -68 70 -119 62z m34 -64 c18 -7 28 -22 32 -45 8 -44 -16 -73 -62 -73
-61 0 -80 70 -32 113 24 20 29 21 62 5z"/>
</g>
</svg>
